# xmcd CD database file
#
# Track frame offsets:
#	150
#	37653
#	55938
#	71358
#	93376
#	109163
#	119968
#	156746
#	176989
#	199932
#	231930
#	249111
#
# Disc length: 3776 seconds
#
# Revision: 0
# Processed by: cddbd v1.5.2PL0 Copyright (c) Steve Scherf et al.
# Submitted via: CDex 1.51
#
DISCID=ab0ebe0c
DTITLE=Barney Kessel Trio - Live in Los Angeles at P.J.'s Club
DYEAR=1900
DGENRE=Jazz
TTITLE0=Slow Burn
TTITLE1=Just In Time
TTITLE2=The Shadow Of Your Smile
TTITLE3=Recado Bossa Nova
TTITLE4=Sweet Baby
TTITLE5=Who Can I Turn To
TTITLE6=One Mint Julep
TTITLE7=Medley: Mahna de Carnival - Samba de Orfeu
TTITLE8=Blues
TTITLE9=Basie's Blues
TTITLE10=The Shadow Of Your Smile
TTITLE11=Blue Mist
EXTD=
EXTT0=
EXTT1=
EXTT2=
EXTT3=
EXTT4=
EXTT5=
EXTT6=
EXTT7=
EXTT8=
EXTT9=
EXTT10=
EXTT11=
PLAYORDER=
